<svg width="18" height="20" viewBox="0 0 18 20" fill="none" xmlns="http://www.w3.org/2000/svg">
<path d="M6.79545 17.5C7.38306 18.0186 8.15493 18.3333 9.0003 18.3333C9.84567 18.3333 10.6175 18.0186 11.2052 17.5M14.0003 6.66667C14.0003 5.34059 13.4735 4.06882 12.5358 3.13114C11.5982 2.19346 10.3264 1.66667 9.0003 1.66667C7.67422 1.66667 6.40245 2.19346 5.46477 3.13114C4.52708 4.06882 4.0003 5.34059 4.0003 6.66667C4.0003 9.24183 3.35069 11.005 2.62502 12.1712C2.01291 13.1549 1.70685 13.6468 1.71807 13.784C1.7305 13.9359 1.76268 13.9938 1.88511 14.0847C1.99568 14.1667 2.49413 14.1667 3.49101 14.1667H14.5096C15.5065 14.1667 16.0049 14.1667 16.1155 14.0847C16.2379 13.9938 16.2701 13.9359 16.2825 13.784C16.2938 13.6468 15.9877 13.1549 15.3756 12.1712C14.6499 11.005 14.0003 9.24183 14.0003 6.66667Z" stroke="#B3B3B3" stroke-width="1.5" stroke-linecap="round" stroke-linejoin="round"/>
</svg>
