<svg width="20" height="16" viewBox="0 0 20 16" fill="none" xmlns="http://www.w3.org/2000/svg">
<path d="M1.66699 3.83333L8.47109 8.5962C9.02207 8.98188 9.29756 9.17472 9.59721 9.24942C9.8619 9.3154 10.1387 9.3154 10.4034 9.24942C10.7031 9.17472 10.9786 8.98188 11.5296 8.5962L18.3337 3.83333M5.66699 14.6667H14.3337C15.7338 14.6667 16.4339 14.6667 16.9686 14.3942C17.439 14.1545 17.8215 13.772 18.0612 13.3016C18.3337 12.7669 18.3337 12.0668 18.3337 10.6667V5.33333C18.3337 3.9332 18.3337 3.23313 18.0612 2.69835C17.8215 2.22795 17.439 1.8455 16.9686 1.60581C16.4339 1.33333 15.7338 1.33333 14.3337 1.33333H5.66699C4.26686 1.33333 3.5668 1.33333 3.03202 1.60581C2.56161 1.8455 2.17916 2.22795 1.93948 2.69835C1.66699 3.23313 1.66699 3.9332 1.66699 5.33333V10.6667C1.66699 12.0668 1.66699 12.7669 1.93948 13.3016C2.17916 13.772 2.56161 14.1545 3.03202 14.3942C3.5668 14.6667 4.26686 14.6667 5.66699 14.6667Z" stroke="#B3B3B3" stroke-width="1.5" stroke-linecap="round" stroke-linejoin="round"/>
</svg>
