<svg width="16" height="16" viewBox="0 0 16 16" fill="none" xmlns="http://www.w3.org/2000/svg">
<path d="M14.5562 3.4117C13.6797 2.16087 12.4644 1.18606 11.0532 0.601703C11.8442 1.99336 12.4057 3.50338 12.7162 5.0737C13.4071 4.61208 14.027 4.0522 14.5562 3.4117ZM11.3272 5.8247C10.9886 3.73723 10.1619 1.75922 8.91424 0.0517029C8.30753 -0.0172343 7.69495 -0.0172343 7.08824 0.0517029C5.8406 1.75922 5.01383 3.73723 4.67524 5.8247C5.72704 6.27171 6.8584 6.50131 8.00124 6.4997C9.18124 6.4997 10.3052 6.2597 11.3272 5.8247ZM4.51524 7.3757C5.63075 7.78986 6.81133 8.00118 8.00124 7.9997C9.22724 7.9997 10.4012 7.7797 11.4872 7.3757C11.5464 8.63895 11.4282 9.90424 11.1362 11.1347C10.109 11.3782 9.0569 11.5007 8.00124 11.4997C6.92224 11.4997 5.87324 11.3727 4.86724 11.1337C4.575 9.90362 4.45652 8.63866 4.51524 7.3757ZM3.28624 5.0737C3.59686 3.50373 4.15839 1.99405 4.94924 0.602703C3.53803 1.18706 2.32281 2.16187 1.44624 3.4127C1.97524 4.0507 2.59524 4.6127 3.28624 5.0737ZM15.3352 4.7977C15.9005 6.09085 16.1124 7.51087 15.9492 8.9127C14.972 9.62617 13.903 10.2047 12.7712 10.6327C13.0012 9.33296 13.0597 8.00866 12.9452 6.6937C13.8338 6.1871 14.6398 5.54772 15.3352 4.7977ZM0.667239 4.7977C1.3627 5.54773 2.16866 6.18711 3.05724 6.6937C2.94384 8.00902 3.00234 9.3335 3.23124 10.6337C2.09947 10.2057 1.03052 9.62715 0.0532395 8.9137C-0.109584 7.51178 0.102643 6.09176 0.66824 4.7987L0.667239 4.7977ZM8.00124 12.9997C8.89924 12.9997 9.77924 12.9207 10.6342 12.7697C10.2062 13.9015 9.62768 14.9704 8.91424 15.9477C8.30752 16.0165 7.69496 16.0165 7.08824 15.9477C6.37477 14.9704 5.79623 13.9015 5.36824 12.7697C6.22324 12.9207 7.10324 12.9997 8.00124 12.9997ZM12.3582 12.3567C12.0373 13.4153 11.5996 14.4349 11.0532 15.3967C12.0273 14.9933 12.9124 14.402 13.658 13.6564C14.4035 12.9109 14.9948 12.0258 15.3982 11.0517C14.4452 11.5937 13.4272 12.0327 12.3582 12.3567ZM4.94924 15.3967C3.97513 14.9933 3.09004 14.402 2.34451 13.6564C1.59899 12.9109 1.00764 12.0258 0.604239 11.0517C1.55724 11.5937 2.57524 12.0327 3.64424 12.3567C3.96514 13.4153 4.40283 14.4349 4.94924 15.3967Z" fill="#087443"/>
</svg>
